<?xml version="1.0" encoding="UTF-8"?>
<svg width="30px" height="39px" viewBox="0 0 30 39" version="1.1" xmlns="http://www.w3.org/2000/svg" xmlns:xlink="http://www.w3.org/1999/xlink">
    <!-- Generator: Sketch 50.2 (55047) - http://www.bohemiancoding.com/sketch -->
    <title>shopping-bag-2</title>
    <desc>Created with Sketch.</desc>
    <defs></defs>
    <g id="Home" stroke="none" stroke-width="1" fill="none" fill-rule="evenodd">
        <g id="Desktop-HD" transform="translate(-1275.000000, -67.000000)" fill="#231F20" fill-rule="nonzero">
            <g id="Menu">
                <g id="Group-3">
                    <g id="Group-8" transform="translate(1220.000000, 67.000000)">
                        <g id="shopping-bag-2" transform="translate(55.000000, 0.000000)">
                            <path d="M25.7849128,38.7713245 L4.2505814,38.7713245 C1.92,38.7713245 0.0555523256,36.8892197 0.0555523256,34.5365666 L0.0555523256,34.442457 L1.92,9.88107243 C2.01322674,9.12819528 2.57258721,8.56362545 3.31831395,8.56362545 L26.717093,8.56362545 C27.462907,8.56362545 28.0221802,9.12828331 28.115407,9.88107243 L29.9798547,34.442545 L29.9798547,34.5366547 C29.9799419,36.8892197 28.1154942,38.7713245 25.7849128,38.7713245 Z M2.85226744,34.6306763 C2.85226744,35.3835534 3.50485465,36.0422329 4.2505814,36.0422329 L25.7849128,36.0422329 C26.5307267,36.0422329 27.1832267,35.477575 27.1832267,34.6306763 L25.4120058,11.4807603 L4.62348837,11.4807603 C4.62348837,11.4808483 2.85226744,34.6306763 2.85226744,34.6306763 Z" id="Shape"></path>
                            <path d="M21.1238372,11.2926291 C20.3780233,11.2926291 19.7255233,10.6338615 19.7255233,9.88107243 L19.7255233,7.52841937 C19.7255233,4.89343737 17.6746221,2.82320128 15.0644477,2.82320128 C12.4542733,2.82320128 10.4033721,4.89352541 10.4033721,7.52841937 L10.4033721,9.88107243 C10.4033721,10.6339496 9.75078488,11.2926291 9.00505814,11.2926291 C8.2593314,11.2926291 7.60674419,10.6338615 7.60674419,9.88107243 L7.60674419,7.52841937 C7.60656977,3.38777111 10.9625581,0 15.0643605,0 C19.1661628,0 22.5221512,3.38777111 22.5221512,7.52841937 L22.5221512,9.88107243 C22.5221512,10.6338615 21.869564,11.2926291 21.1238372,11.2926291 Z" id="Shape"></path>
                            <ellipse id="Oval" cx="8.91165698" cy="15.0568387" rx="1.67799419" ry="1.69388555"></ellipse>
                            <ellipse id="Oval" cx="21.1238372" cy="15.0568387" rx="1.67799419" ry="1.69388555"></ellipse>
                        </g>
                    </g>
                </g>
            </g>
        </g>
    </g>
</svg>