<svg id="Layer_1" data-name="Layer 1" xmlns="http://www.w3.org/2000/svg" viewBox="0 0 217.61 56.73"><title>logo</title><path d="M63.3,55.45a12,12,0,0,0,4-.62,9,9,0,0,0,3-1.69,7.4,7.4,0,0,0,1.87-2.49,7,7,0,0,0,.65-3q0-5.63-5.63-5.63H57.64q-3.38,0-4.95-1.36a4.47,4.47,0,0,1-.89-5.78A11.7,11.7,0,0,1,53.31,33a16.59,16.59,0,0,1,2.33-1.61,8.56,8.56,0,0,1-2.07-1.9A9.94,9.94,0,0,1,52.12,27a9.33,9.33,0,0,1-.62-3.61,9.8,9.8,0,0,1,3-7.17,10.25,10.25,0,0,1,3.38-2.13,11.55,11.55,0,0,1,4.26-.77,10.58,10.58,0,0,1,2,.18,16,16,0,0,1,1.72.41,10.27,10.27,0,0,1,1.66.59,6.36,6.36,0,0,1,1.06-1.2,5.8,5.8,0,0,1,1.48-.83,5.73,5.73,0,0,1,2.13-.36,5.84,5.84,0,0,1,3.17.74,6.67,6.67,0,0,1,1.81,1.63,6.24,6.24,0,0,1,.95,2.37l-4.44.89a11.94,11.94,0,0,0-.53-2.19A5.84,5.84,0,0,0,72.32,14a1.58,1.58,0,0,0-1.3-.71,2.39,2.39,0,0,0-1.18.3,3.74,3.74,0,0,0-.83.59,3.41,3.41,0,0,0-.65.89,8.74,8.74,0,0,1,3.35,3.5,10.35,10.35,0,0,1,1.1,4.8,9.8,9.8,0,0,1-3,7.17,10.24,10.24,0,0,1-3.38,2.13,11.53,11.53,0,0,1-4.27.77,11.15,11.15,0,0,1-4-.71,6.61,6.61,0,0,1-1.6-.77,11.21,11.21,0,0,0-1.48,1.13,5.16,5.16,0,0,0-1,1.13,2.3,2.3,0,0,0-.44,1.3A1.69,1.69,0,0,0,54.47,37a6.55,6.55,0,0,0,3.32.56h9.48a7.71,7.71,0,0,1,5.78,2.28,8.33,8.33,0,0,1,2.22,6.07,10.15,10.15,0,0,1-.86,4.18A10.45,10.45,0,0,1,72,53.46a11.11,11.11,0,0,1-3.73,2.28,13.65,13.65,0,0,1-4.86.83,20.11,20.11,0,0,1-5.78-.74,12,12,0,0,1-4.06-2,8.27,8.27,0,0,1-2.4-3,8.74,8.74,0,0,1-.8-3.73,5,5,0,0,1,.18-1.39,4.67,4.67,0,0,1,.41-1,3.13,3.13,0,0,1,.59-0.83L56,45.66a5.75,5.75,0,0,0-.3.89,5.56,5.56,0,0,0-.3,1.78,6.82,6.82,0,0,0,2.1,5.15A8.17,8.17,0,0,0,63.3,55.45ZM62.12,32.58a4.12,4.12,0,0,0,2-.5,5,5,0,0,0,1.72-1.63,9,9,0,0,0,1.21-2.87,19.85,19.85,0,0,0,0-8.35,8.65,8.65,0,0,0-1.21-2.84,5.35,5.35,0,0,0-1.72-1.63,3.85,3.85,0,0,0-3.91,0,5.32,5.32,0,0,0-1.72,1.63,8.63,8.63,0,0,0-1.21,2.84,19.85,19.85,0,0,0,0,8.35,9,9,0,0,0,1.21,2.87,4.92,4.92,0,0,0,1.72,1.63A4.11,4.11,0,0,0,62.12,32.58Z"/><path d="M82.56,40V1.48L79,0.59V0H87.3V40l3.55,0.89v0.59H79V40.89Z"/><path d="M98,40V15.7l-3.55-.89V14.22h8.29V40l3.55,0.89v0.59H94.41V40.88Zm5-32.58a3.15,3.15,0,1,1-.92-2,2.83,2.83,0,0,1,1,2h0Z"/><path d="M124.91,14.22v1.19H118.1v18.9q0,3.62,1.3,5.24a3.67,3.67,0,0,0,2.84,1.63,4.46,4.46,0,0,0,3.41-1.51,7.2,7.2,0,0,0,1.63-4.41h0.89a8.08,8.08,0,0,1-2,5.24,6,6,0,0,1-4.53,1.81,8.23,8.23,0,0,1-6-2.22,7.76,7.76,0,0,1-2.25-5.78v-19h-5V14.22h5V7.41l4.74-3.26V14.22h6.78Z"/><path d="M144.76,14.22v1.19h-6.81v18.9q0,3.62,1.3,5.24a3.67,3.67,0,0,0,2.84,1.63,4.46,4.46,0,0,0,3.41-1.51,7.2,7.2,0,0,0,1.63-4.41H148a8.08,8.08,0,0,1-2,5.24,6,6,0,0,1-4.47,1.87,8.23,8.23,0,0,1-6-2.22,7.76,7.76,0,0,1-2.25-5.78v-19h-5V14.22h5V7.41L138,4.15V14.22h6.72Z"/><path d="M156,27.85a30,30,0,0,0,.56,6.34,14.32,14.32,0,0,0,1.48,4.12,5.82,5.82,0,0,0,2.07,2.22,4.82,4.82,0,0,0,2.4.65,7.19,7.19,0,0,0,2.9-.59,8.34,8.34,0,0,0,2.43-1.6,8.13,8.13,0,0,0,1.75-2.43,10.56,10.56,0,0,0,.92-3.08h0.89a11.05,11.05,0,0,1-1,3.52,9.81,9.81,0,0,1-2,2.81,9.34,9.34,0,0,1-2.87,1.87,9.06,9.06,0,0,1-3.52.68,9.64,9.64,0,0,1-4.27-1,10.86,10.86,0,0,1-3.58-2.84A14,14,0,0,1,151.69,34a18.94,18.94,0,0,1-.92-6.13,20.25,20.25,0,0,1,.89-6.28A14.2,14.2,0,0,1,154,17a10,10,0,0,1,3.29-2.71,9.16,9.16,0,0,1,8.12,0,10,10,0,0,1,3.38,2.75,14.21,14.21,0,0,1,2.34,4.53,20.25,20.25,0,0,1,.89,6.28H156v0Zm5.33-13.63a3.3,3.3,0,0,0-1.78.56,5.23,5.23,0,0,0-1.66,2,14.31,14.31,0,0,0-1.27,3.81,36,36,0,0,0-.62,6.07h10.62a36.14,36.14,0,0,0-.62-6.07,14.39,14.39,0,0,0-1.27-3.82,5.24,5.24,0,0,0-1.66-2A3.3,3.3,0,0,0,161.35,14.22Z"/><path d="M184.75,40l3.55,0.89v0.59H176.45V40.88L180,40V15.7l-3.55-.89V14.22h8.29v7.09a21.6,21.6,0,0,1,1.84-4,12.9,12.9,0,0,1,2.31-2.78,4.66,4.66,0,0,1,3.26-1.22,8.48,8.48,0,0,1,1.24.09q0.59,0.09,1.07.21l0.95,0.3-1.77,4.46L192.87,18a5.29,5.29,0,0,0-.86-0.33,3.68,3.68,0,0,0-1-.15,4.64,4.64,0,0,0-2.72.83,8.74,8.74,0,0,0-2,1.84,10.44,10.44,0,0,0-1.54,2.67V40h0Z"/><path d="M208.44,42.31a10.55,10.55,0,0,1-3.26-.44,8.08,8.08,0,0,1-2.19-1,6.71,6.71,0,0,1-1.66-1.48,3.81,3.81,0,0,1-1,1.66,3.9,3.9,0,0,1-1.39,1H198l0.12-1.6q0.06-.71.12-1.51t0.06-1.63q0-.89-0.06-1.78t-0.12-1.6L198,32.27h0.89a14.23,14.23,0,0,0,3.44,6.58,7.45,7.45,0,0,0,5.45,2.31,5.55,5.55,0,0,0,4.06-1.54,5.11,5.11,0,0,0,1.57-3.79,4,4,0,0,0-1.1-2.78,12.06,12.06,0,0,0-2.72-2.15q-1.66-1-3.55-1.93a26.19,26.19,0,0,1-3.55-2.13,11.17,11.17,0,0,1-2.75-2.78,6.75,6.75,0,0,1-1.1-3.91,5.86,5.86,0,0,1,.59-2.55,7,7,0,0,1,1.63-2.19,7.78,7.78,0,0,1,2.52-1.51,9.11,9.11,0,0,1,3.21-.59,7.08,7.08,0,0,1,2.7.47,12.45,12.45,0,0,1,2,1,7.87,7.87,0,0,1,1.55,1.53,3.8,3.8,0,0,1,1-1.66,3.89,3.89,0,0,1,1.39-1h0.89q-0.12.77-.18,1.6t-0.09,1.54V20.2a9.14,9.14,0,0,0,.09,1.63c0.09,0.48.1,1.09,0.18,1.6h-0.89A14.93,14.93,0,0,0,212,16.85a6.43,6.43,0,0,0-4.68-2.31,4.64,4.64,0,0,0-3.38,1.33A4.21,4.21,0,0,0,202.54,19a3.39,3.39,0,0,0,1.1,2.53,13.59,13.59,0,0,0,2.78,2q1.66,0.92,3.64,1.87a21.5,21.5,0,0,1,3.64,2.19,11.69,11.69,0,0,1,2.78,3,7.41,7.41,0,0,1,1.13,4.15,6.34,6.34,0,0,1-.68,2.81A8.18,8.18,0,0,1,215,40a9.24,9.24,0,0,1-2.9,1.75A10.21,10.21,0,0,1,208.44,42.31Z"/><path d="M7.56,43.89v0.54H4.46V53A3.83,3.83,0,0,0,5,55.43a1.67,1.67,0,0,0,1.3.74,2,2,0,0,0,1.55-.69,3.28,3.28,0,0,0,.74-2H9a3.68,3.68,0,0,1-.93,2.39,2.72,2.72,0,0,1-2,.85,3.75,3.75,0,0,1-2.75-1,3.54,3.54,0,0,1-1-2.63V44.45H0V43.91H2.29v-3.1l2.17-1.5V43.9h3.1Z"/><path d="M11.75,55.63V38.08l-1.62-.4V37.41h3.78v8.1a3.84,3.84,0,0,1,.73-1,4.25,4.25,0,0,1,1-.7,2.89,2.89,0,0,1,1.4-.32,3.67,3.67,0,0,1,3.5,2.39,4.63,4.63,0,0,1,.28,1.66v8.1L22.44,56v0.27H17.15V56l1.48-.4v-8.1A4.59,4.59,0,0,0,18,44.83,1.76,1.76,0,0,0,16.6,44a1.83,1.83,0,0,0-1.16.38,4.6,4.6,0,0,0-.84.84,6.16,6.16,0,0,0-.7,1.21v9.18L15.38,56v0.27H10.13V56Z"/><path d="M29.16,43.89a1.81,1.81,0,0,0-1.35.55,2,2,0,0,0-.54,1.47v0.38a2.51,2.51,0,0,0,0,.3,1.51,1.51,0,0,0,.08.27l-2.16.54a0.6,0.6,0,0,1-.08-0.22,2.51,2.51,0,0,1,0-.3V46.45a2.36,2.36,0,0,1,.27-1.09,2.91,2.91,0,0,1,.8-0.95,4.26,4.26,0,0,1,1.27-.67,5.25,5.25,0,0,1,1.71-.26,4.17,4.17,0,0,1,3.06,1.11,4,4,0,0,1,1.12,2.94v8.1L35,56v0.28H31.18V54.69a4.21,4.21,0,0,1-.76,1,4,4,0,0,1-1,.69,2.91,2.91,0,0,1-1.39.31,4.16,4.16,0,0,1-2.93-.92,3.2,3.2,0,0,1-1-2.46,3.1,3.1,0,0,1,.42-1.51,4.08,4.08,0,0,1,1.27-1.35,7.05,7.05,0,0,1,2.17-1,12,12,0,0,1,3.16-.36V47.47a4.9,4.9,0,0,0-.61-2.83A1.75,1.75,0,0,0,29.16,43.89Zm2,5.8a5,5,0,0,0-3.47,1,3.73,3.73,0,0,0-1,2.92,2.76,2.76,0,0,0,.59,1.89,1.72,1.72,0,0,0,1.3.68,1.85,1.85,0,0,0,1.15-.38A4.43,4.43,0,0,0,30.53,55a5.28,5.28,0,0,0,.7-1.21v-4Z"/><path d="M43.47,43.89v0.54h-3.1V53A3.83,3.83,0,0,0,41,55.43a1.67,1.67,0,0,0,1.3.74,2,2,0,0,0,1.55-.69,3.28,3.28,0,0,0,.74-2H45A3.68,3.68,0,0,1,44,55.87a2.72,2.72,0,0,1-2,.85,3.75,3.75,0,0,1-2.75-1,3.54,3.54,0,0,1-1-2.63V44.45H35.91V43.91H38.2v-3.1l2.16-1.5V43.9h3.11Z"/><path d="M25.64,20.56a1.81,1.81,0,0,0-1.35.55,2,2,0,0,0-.54,1.47V23a2.51,2.51,0,0,0,0,.3,1.51,1.51,0,0,0,.08.27l-2.16.54a0.6,0.6,0,0,1,0-.22,2.51,2.51,0,0,1,0-.3V23.12A2.36,2.36,0,0,1,21.91,22a2.91,2.91,0,0,1,.8-0.95A4.26,4.26,0,0,1,24,20.41a5.25,5.25,0,0,1,1.66-.26,4.17,4.17,0,0,1,3,1.11,4,4,0,0,1,1.12,2.94v8.11l1.62,0.4V33H27.64V31.31a4.21,4.21,0,0,1-.76,1,4,4,0,0,1-1,.69,2.91,2.91,0,0,1-1.39.31,4.16,4.16,0,0,1-2.93-.92,3.2,3.2,0,0,1-1-2.46A3.1,3.1,0,0,1,21,28.42a4.08,4.08,0,0,1,1.27-1.35,7.05,7.05,0,0,1,2.17-1,12,12,0,0,1,3.22-.25V24.2A4.9,4.9,0,0,0,27,21.37,1.75,1.75,0,0,0,25.64,20.56Zm2,5.75a5,5,0,0,0-3.47,1,3.73,3.73,0,0,0-1.11,3,2.76,2.76,0,0,0,.58,1.85,1.72,1.72,0,0,0,1.3.68,1.85,1.85,0,0,0,1.15-.38,4.43,4.43,0,0,0,.85-0.84,5.28,5.28,0,0,0,.7-1.21v-4.1Z"/><path d="M34.26,32.31V14.75l-1.62-.44V14.08h3.78V32.31L38,32.71V33h-5.4V32.71Z"/><path d="M41.14,32.31V14.75l-1.62-.44V14.08H43.3V32.31l1.62,0.4V33h-5.4V32.71Z"/></svg>